<svg class="menu-icon" fill="#525A67" height="24" style="display: inline-block; vertical-align: middle;" viewBox="0 0 24 24" width="24"><path clip-rule="evenodd" d="M20 4c.6 0 1.1.3 1.5.7.4.5.6 1.1.5 1.7l-1.5 6.5c-.4 1.8-2 3.1-3.9 3.1H9.4c-1.9 0-3.5-1.3-3.9-3.1L3.4 4H2c-.6 0-1-.4-1-1s.4-1 1-1h1.2c1.3 0 2.1.7 2.3 2v.1c.1-.1.3-.1.5-.1h14zm-3.4 10c.9 0 1.7-.7 1.9-1.6L20 6H6l1.5 6.4c.2 1 1 1.6 1.9 1.6h7.2zm-7.1 3c-1.1 0-2 .9-2 2s.9 2 2 2 2-.9 2-2-.9-2-2-2zm7.1 0c-1.1 0-2 .9-2 2s.9 2 2 2 2-.9 2-2-.9-2-2-2z" fill-rule="evenodd"></path></svg>
