
<svg width="56" height="56" viewBox="0 0 56 56" fill="none" xmlns="http://www.w3.org/2000/svg"><path opacity=".4" d="M50.64 36.48c2.373-11.067-3.707-15.44-6.534-19.253C41.306 13.44 35.093 9.333 28.64 8c-6.48-1.307-12.907 3.04-17.093 10.853C7.36 26.667 4.88 31.12 6.293 36.507c1.413 5.386 7.974 5.653 11.307 7.52 3.627 1.84 6.933 7.786 17.813 6.266C46.533 48.8 49.44 42.027 50.64 36.48z" fill="#83ECB2"/><path d="M18.587 43.813c-.454-1.28-1.494-2.026-2.827-2.106v-.027c-.8-1.12-2.08-1.627-3.36-1.28-1.04.293-2.16 1.2-2.267 2.88-1.146.8-1.626 2.053-1.28 3.36.027.107.08.24.134.347.053.186.133.346.24.506.24.4.96 1.28 2.453 1.36.773 1.147 2.027 1.654 3.36 1.28 1.307-.346 2.16-1.413 2.267-2.8 1.386-.933 1.6-2.346 1.333-3.36-.027-.053-.027-.106-.053-.16z" fill="#fff"/><path d="M14.053 42.507c-.453-.64-.933-.587-1.226-.507-.347.107-.907.373-.774 1.52l.054.56c-.027.187-.107.373-.267.453l-.507.24c-.986.48-.96 1.067-.853 1.467.027.107.107.24.187.347.346 0 .666-.054.986-.134 1.654-.426 2.72-2.16 2.4-3.946z" fill="#FFDC00"/><path d="M15.546 43.6l-.586.053c-.187-.026-.374-.106-.454-.266l-.24-.507c-.08-.16-.133-.267-.213-.373a3.372 3.372 0 0 1-2.48 3.92c-.32.08-.693.106-.987.133.187.293.56.48 1.334.427l.56-.054c.186.027.373.107.453.267l.24.507c.427 1.013 1.067.96 1.413.88.347-.08.907-.374.827-1.467l-.053-.56c.027-.187.107-.373.267-.453l.506-.24c.987-.48.987-1.094.907-1.44-.133-.374-.373-.96-1.493-.827z" fill="#FEC100"/><path d="M46.373 12.453c.214-1.573-.426-2.933-1.786-3.733v-.027-.026c-.214-1.6-1.28-2.827-2.8-3.147-1.254-.267-2.907.053-3.92 1.76-1.627.213-2.8 1.253-3.174 2.827a2.339 2.339 0 0 0-.053.426 1.728 1.728 0 0 0-.027.64c.054.56.294 1.84 1.787 2.747.187 1.627 1.227 2.827 2.8 3.173 1.573.347 3.013-.293 3.893-1.68 1.947-.24 2.96-1.573 3.227-2.773.027-.027.053-.107.053-.187z" fill="#fff"/><path d="M42.373 8.64c-.106-.907-.666-1.12-.986-1.2-.427-.08-1.174-.107-1.654 1.173l-.266.614c-.107.16-.32.32-.507.32l-.667-.027c-1.28-.053-1.6.587-1.68 1.04-.026.107-.026.32 0 .48.347.187.72.32 1.094.4 1.973.453 4.026-.773 4.666-2.8z" fill="#FFDC00"/><path d="M43.307 10.587l-.64-.267c-.16-.107-.32-.32-.32-.507l.026-.666V8.64c-.613 2-2.64 3.2-4.72 2.747a4.85 4.85 0 0 1-1.093-.4c.027.4.32.826 1.173 1.173l.614.267c.16.107.32.32.32.506l-.027.667c-.08 1.28.587 1.6 1.013 1.68.427.08 1.174.107 1.654-1.093l.266-.614c.107-.16.32-.32.507-.32l.667.027c1.28.053 1.626-.586 1.733-.986.027-.507.08-1.227-1.173-1.707z" fill="#FEC100"/><path d="M50.693 29.44c-.026 0-.026-.027 0 0l-5.066-7.893a4.938 4.938 0 0 0-4.134-2.24h-4.64a6.296 6.296 0 0 0-6.08-4.694H16.267c-.134 0-.267 0-.427.027H9.333a3.21 3.21 0 0 0-3.2 3.2c0 1.573 1.12 2.88 2.614 3.147A3.214 3.214 0 0 0 7.6 23.44c0 1.76 1.44 3.2 3.2 3.2h2.053v8.587a5.713 5.713 0 0 0 5.707 5.706h27.973a4.906 4.906 0 0 0 4.907-4.8V32.08a4.67 4.67 0 0 0-.747-2.64z" fill="#fff"/><path d="M45.36 39.093h1.2a3.107 3.107 0 0 0 3.12-3.12V32.08c0-.587-.16-1.173-.507-1.707l-5.066-7.866a3.123 3.123 0 0 0-2.614-1.414h-6.24v18h2.88" fill="#47DB58"/><path d="M46.96 34.213h2.693v1.814H46.96a.87.87 0 0 1-.88-.88c0-.48.373-.934.88-.934z" fill="#A8FCB1"/><path d="M42.027 23.6h-4.24c-.614 0-1.12.507-1.12 1.12v3.36c0 .613.506 1.12 1.12 1.12h6.4c.853 0 1.386-.987.906-1.707l-2.16-3.36c-.133-.32-.506-.533-.906-.533z" fill="#fff"/><path d="M30.773 16.4H16.267c-.107 0-.187 0-.267.027H9.36c-.747 0-1.387.613-1.387 1.386 0 .747.614 1.387 1.387 1.387h2.4c.773 0 1.387.64 1.387 1.387 0 .773-.64 1.386-1.387 1.386h2.96V22h-3.867c-.746 0-1.386.613-1.386 1.387 0 .746.613 1.386 1.386 1.386h3.867v.027h-1.333c.64 0 1.173.453 1.333 1.013v9.36c0 2.16 1.76 3.894 3.893 3.894H35.307V20.88c-.054-2.48-2.054-4.48-4.534-4.48z" fill="#3C9547"/><path d="M44.213 38.48a5.975 5.975 0 0 0-5.68-6.213 5.975 5.975 0 0 0-6.213 5.68A5.975 5.975 0 0 0 38 44.16c3.307.16 6.08-2.4 6.213-5.68z" fill="#fff"/><path d="M42.666 38.427c.107-2.427-1.786-4.48-4.186-4.587-2.427-.107-4.48 1.787-4.587 4.187-.107 2.426 1.787 4.48 4.187 4.586a4.386 4.386 0 0 0 4.587-4.186z" fill="#47DB58"/><path d="M38.267 40.48a2.236 2.236 0 0 0 2.24-2.24 2.236 2.236 0 0 0-2.24-2.24 2.237 2.237 0 0 0-2.24 2.24 2.236 2.236 0 0 0 2.24 2.24z" fill="#A8FCB1"/><path d="M20.694 44.187a5.952 5.952 0 0 0 5.946-5.947 5.952 5.952 0 0 0-5.947-5.946 5.952 5.952 0 0 0-5.946 5.946 5.952 5.952 0 0 0 5.947 5.947z" fill="#fff"/><path d="M25.12 38.427c.107-2.427-1.787-4.48-4.187-4.587-2.426-.107-4.48 1.787-4.586 4.187-.107 2.426 1.787 4.48 4.186 4.586 2.4.107 4.48-1.76 4.587-4.186z" fill="#47DB58"/><path d="M20.693 40.48a2.236 2.236 0 0 0 2.24-2.24 2.237 2.237 0 0 0-2.24-2.24 2.236 2.236 0 0 0-2.24 2.24c-.026 1.254 1.014 2.24 2.24 2.24z" fill="#A8FCB1"/><path d="M20.88 20.08c.267-.027.56-.027.827 0 .453.053.826.16 1.2.347.373.186.666.426.907.773.24.293.426.693.533 1.12v.107s.106.64.026 1.173v.027c0 .026 0 .026-.026.053-.027.107-.053.16-.107.267-.133.213-.346.373-.666.48l-2.614 1.04c.24.026.507.053.747.026.133-.026.267-.026.427-.08.4-.106.72-.213 1.066-.426.347-.16.587-.374.774-.56.16.053.346.16.48.266.16.134.24.294.266.48v.107s.08.4.027.88a.754.754 0 0 1-.107.48 1.347 1.347 0 0 1-.267.347c-.24.213-.586.4-.906.533-.373.133-.694.24-1.04.347-.213.053-.48.08-.72.106a9.396 9.396 0 0 1-.854.027c-.506-.053-.933-.16-1.386-.4a3.486 3.486 0 0 1-1.093-.907c-.294-.4-.56-.906-.667-1.466-.053-.134-.053-.24-.08-.374a1.135 1.135 0 0 1-.107-.453c-.133-.613-.186-1.147-.053-1.6.08-.48.267-.88.56-1.253.267-.374.586-.667.986-.854.4-.24.827-.4 1.254-.506.186-.08.4-.08.613-.107zm-.853 3.173l1.333-.533c-.107-.027-.186 0-.293 0-.053 0-.134.027-.187.027-.213.053-.4.133-.56.24-.16.026-.24.133-.293.266zm.72-4.48c-.24.027-.507.08-.773.134a5.976 5.976 0 0 0-1.654.666c-.56.347-1.04.747-1.387 1.254-.4.506-.64 1.093-.773 1.786-.133.667-.08 1.387.08 2.16.054.16.054.267.107.454 0 .133.053.24.08.373.186.773.506 1.44.88 1.973.453.56.933 1.014 1.547 1.307.586.293 1.226.48 1.92.533.373.027.72.027 1.12-.026.266-.027.586-.08.88-.16.373-.107.8-.214 1.2-.4.506-.187.933-.48 1.333-.774.187-.186.373-.373.533-.586a.586.586 0 0 0 .08-.134c.16-.293.24-.613.267-.933.08-.613-.027-1.12-.027-1.253 0-.054 0-.107-.026-.16a1.592 1.592 0 0 0-.4-.854c.026-.026.026-.106.053-.133 0-.027.027-.107.027-.133v-.027c.106-.667 0-1.413-.027-1.573v-.107-.107a3.738 3.738 0 0 0-.773-1.6c-.374-.48-.8-.826-1.36-1.12a4.516 4.516 0 0 0-1.707-.48 2.711 2.711 0 0 0-1.2-.08z" fill="#fff"/><path d="M15.147 21.36c.133-.026.266 0 .426.027.107.026.214.053.267.107h.027c.666.293.72.933.72 1.706v.027a.883.883 0 0 1 0 .373l-.56.24c-.187.08-.374.187-.534.347-.16.16-.346.213-.506.293a.799.799 0 0 0-.267.24l1.653 3.68c-.026 0-.026.027-.053.027l.267.64c-.054.08-.187.16-.4.24-.16.106-.374.186-.56.293-.187.08-.374.133-.534.187a.34.34 0 0 0-.16.026c-.106 0-.186.027-.293 0-.133-.026-.24-.106-.373-.186a1.862 1.862 0 0 1-.347-.48l-1.707-3.787v-.027l-.346-.773c-.08-.186-.107-.4-.134-.56.027-.16.054-.347.16-.533.08-.16.24-.374.4-.56.16-.187.4-.347.56-.534.214-.16.454-.373.667-.48.213-.16.507-.266.747-.4.426-.053.666-.106.88-.133zm-.134-1.306c-.4.026-.746.133-1.146.346-.347.133-.64.293-.934.507-.293.16-.586.373-.826.587a5.33 5.33 0 0 0-.694.64c-.24.24-.48.56-.613.8-.16.373-.267.693-.293 1.04-.027.373.053.8.213 1.173l.293.693c0 .027.027.053.054.08l1.706 3.787c.16.4.4.666.614.88.293.266.64.48 1.04.533.24.027.506.08.773.053.107 0 .24-.026.347-.053.24-.053.506-.16.773-.24a1.92 1.92 0 0 0 .72-.4c.213-.16.427-.24.56-.373.48-.4.613-1.014.4-1.547l-.133-.267c-.027-.133-.027-.293-.107-.426l-1.227-2.694c.107-.053.16-.106.24-.16.16-.08.294-.16.427-.213.48-.187.773-.613.827-1.093 0-.187.026-.454 0-.64v-.027c-.054-.72-.134-2.08-1.494-2.746l-.026-.027c-.214-.107-.4-.187-.64-.187a3.135 3.135 0 0 0-.854-.026z" fill="#fff"/><path d="M9.173 22.48c.027 0 .107 0 .134-.027.24 0 .426.054.613.187.187.107.773.747.853 1.707a.76.76 0 0 1-.053.426c-.16.054-.373.107-.533.16-.187.054-.4.16-.64.294-.374.186-.614.4-.72.64-.054.107-.08.213-.054.346l2-1.12c.107.054.214.134.347.267.107.107.213.24.347.4.053.08.08.187.133.267l.213.48s0 .026.027.026c.08.107.133.214.133.374v.027a.76.76 0 0 1 0 .346.779.779 0 0 1-.4.48l-1.413.774 1.867 3.173.4.64c-.054.08-.187.16-.374.293-.16.107-.373.24-.533.374-.187.08-.373.16-.507.213-.106.053-.16.053-.266.053-.054 0-.134.027-.214 0a1.258 1.258 0 0 1-.4-.16c-.133-.08-.213-.24-.373-.426l-.107-.187c-.106-.08-.186-.213-.266-.373l-3.014-5.067c-.24-.427-.4-.827-.426-1.2a2.54 2.54 0 0 1 .16-1.094c.133-.373.373-.64.666-.933.267-.293.64-.533 1.04-.747.534-.373.987-.56 1.36-.613zm-.133-1.306c-.587.053-1.227.293-1.947.693a5.431 5.431 0 0 0-1.306.986 5.19 5.19 0 0 0-.987 1.36 4.044 4.044 0 0 0-.267 1.68c.027.56.214 1.174.614 1.787l3.013 5.067c.107.187.24.373.373.533l.054.08c.213.347.453.614.72.827a2.37 2.37 0 0 0 1.066.427c.16.026.374.026.534 0 .186-.027.426-.08.586-.134.214-.08.48-.186.72-.346.214-.107.507-.267.694-.454.213-.16.4-.293.506-.426a1.296 1.296 0 0 0 .214-1.574l-.294-.48c0-.026-.053-.08-.08-.106l-1.2-2 .214-.107c.533-.267.88-.72 1.066-1.28.08-.24.08-.507.054-.773-.027-.134-.027-.24-.107-.4a1.436 1.436 0 0 0-.267-.534v-.026l-.133-.294c-.053-.16-.133-.267-.213-.453-.134-.213-.267-.454-.48-.614 0-.053 0-.106-.027-.16v-.106c-.133-1.387-.987-2.373-1.493-2.72-.027 0-.027-.027-.08-.027-.427-.24-.827-.4-1.334-.373-.053-.08-.133-.053-.213-.053zM28.8 19.067c.133-.027.24-.027.373-.027.534-.026.987.053 1.387.187.427.16.8.346 1.093.587.294.266.56.586.72.906.16.347.24.774.267 1.2.027.4-.053 1.04-.347 1.413-.026.054-.08.107-.106.16-.187.187-.427.267-.747.347l-2.693.454c.346.133.72.186 1.12.16.133-.027.266 0 .4 0 .266-.027.506-.08.746-.134.374-.107.64-.213.854-.373.133.08.293.213.4.4.106.16.16.346.16.56 0 .053-.027.107-.027.16v.026c0 .534-.213.907-.347 1.147a1.263 1.263 0 0 1-.427.4c-.293.16-.64.267-1.04.347-.16.027-.346.027-.506.053-.187.027-.373.027-.587.027a5.002 5.002 0 0 1-1.573-.187c-.507-.133-.88-.373-1.28-.666-.4-.267-.667-.667-.827-1.12-.213-.454-.293-1.014-.346-1.574 0-.186.026-.4.026-.613 0-.107-.026-.16-.026-.24 0-.64.08-1.147.266-1.574.187-.453.48-.8.8-1.12a3.933 3.933 0 0 1 1.174-.666c.453-.107.773-.187 1.093-.24zm-.587 2.96l1.307-.24c-.133-.053-.267-.053-.453-.053-.054 0-.107 0-.16.026-.16.027-.294.053-.454.107-.08 0-.186.107-.24.16zm.454-4.267c-.427.053-.854.107-1.254.267-.613.186-1.146.533-1.6.933-.48.427-.853.933-1.146 1.573a5.039 5.039 0 0 0-.4 2.16c0 .054 0 .134.026.214 0 .213-.026.453-.026.64.026.8.16 1.493.426 2.107.294.64.694 1.146 1.2 1.573a4.61 4.61 0 0 0 1.76.906c.614.16 1.28.24 2 .24.187 0 .454-.026.694-.026.16-.027.373-.027.586-.08a4.518 4.518 0 0 0 1.467-.48c.213-.107.427-.24.587-.427a.618.618 0 0 0 .186-.186 1.01 1.01 0 0 0 .134-.214l.026-.027c.187-.346.534-.933.534-1.786 0-.053.026-.16 0-.267 0-.346-.054-.613-.187-.906.427-.667.507-1.494.48-2.054a4.439 4.439 0 0 0-.4-1.68 3.668 3.668 0 0 0-1.093-1.386 4.465 4.465 0 0 0-1.52-.827 5.435 5.435 0 0 0-1.894-.24c-.293-.027-.453-.027-.586-.027z" fill="#fff"/><path d="M32.213 23.654c.054-.027.08-.107.107-.187.267-.427.373-1.093.347-1.493-.027-.16-.187-.187-.4-.08-.027-.054-.054-.134-.08-.187a2.228 2.228 0 0 0-.72-.907 3.898 3.898 0 0 0-1.094-.613 3.817 3.817 0 0 0-1.36-.187c-.453 0-.88.08-1.333.24-.453.134-.8.373-1.147.667a3.804 3.804 0 0 0-.773 1.12c-.187.48-.267 1.013-.267 1.6 0 .587.134 1.2.374 1.68s.506.853.853 1.173c.4.294.773.534 1.28.694.507.16 1.013.186 1.573.213.347 0 .694-.027 1.067-.107s.72-.16 1.04-.373c.16-.08.24-.187.373-.294 0 0 .027-.026.08-.106.107-.187.294-.587.347-1.174-.027-.533-.267-.266-.453-.053a2.927 2.927 0 0 0-.294-.267c-.213.134-.506.24-.826.374-.347.107-.72.16-1.094.186-.426 0-.8-.053-1.146-.213-.347-.133-.56-.4-.667-.693l3.493-.587c.32-.106.56-.24.72-.426zm-4.48-.667c.027-.133.027-.293.08-.48.054-.134.134-.294.214-.427.08-.133.24-.213.426-.266.16-.08.374-.107.587-.134.347 0 .64.08.773.24.187.187.267.4.347.56l-2.427.507zM24.827 25.52l-.374.134c-.106-.08-.24-.16-.426-.214a3.356 3.356 0 0 1-.747.534c-.347.16-.667.293-1.04.4a2.396 2.396 0 0 1-1.147.026.982.982 0 0 1-.773-.533l3.333-1.36c.294-.134.534-.294.667-.507.053-.08.08-.186.107-.267 0-.026 0-.026.026-.08v-.026c.08-.534-.026-1.227-.026-1.227l-.214.187a2.288 2.288 0 0 0-.346-.534c-.24-.346-.56-.56-.907-.773-.373-.187-.747-.293-1.2-.373-.453-.053-.88 0-1.413.107-.454.106-.827.24-1.227.506-.4.24-.693.534-.933.88-.267.4-.454.774-.534 1.28-.08.507-.053 1.067.08 1.68.134.614.374 1.147.694 1.547.346.427.666.72 1.12.933.426.214.853.374 1.386.427.507.053 1.04 0 1.574-.133.346-.08.666-.16 1.04-.374a3.29 3.29 0 0 0 .906-.56c.134-.106.214-.186.267-.346a.834.834 0 0 0 .107-.507c.053-.373 0-.827 0-.827zm-5.094-1.6c.027-.133.08-.347.134-.427.08-.133.16-.24.346-.4.16-.133.347-.186.56-.266.347-.08.614-.054.827.08.213.133.4.293.453.48l-2.293.986c-.027-.16 0-.32-.027-.453zM15.893 21.573c-.373-.16-.213.294.054.827-.027 0-.08-.026-.107-.026-.347-.08-.693 0-1.093.186-.267.107-.507.213-.72.4-.214.16-.454.347-.667.507-.187.16-.4.373-.56.56-.16.186-.293.346-.4.533-.08.187-.133.373-.133.534-.027.16.026.4.133.586l1.707 3.947c.08.213.213.4.346.48a.432.432 0 0 0 .373.187c.134.026.267.026.454 0 .16-.054.347-.107.533-.187.187-.08.4-.187.56-.293.16-.107.267-.187.4-.24l-1.947-4.48c.08-.107.214-.187.374-.294.16-.107.267-.187.48-.347.16-.106.373-.213.533-.346.187-.08.374-.16.56-.267.027-.107 0-.24 0-.4v-.027c-.186-.853-.267-1.52-.88-1.84zM11.973 26.907c-.053-.08-.08-.214-.133-.374 0 0 0-.026-.027-.026l-.373-.72-.107.267c-.08-.054-.106-.08-.186-.134L9.12 27.067l-.213-.4c-.16-.267-.187-.56-.054-.747.107-.213.374-.453.72-.64.214-.107.427-.213.64-.293.187-.053.374-.133.534-.16.053-.107.08-.24.053-.427-.107-.933-.693-1.573-.853-1.706-.107-.054.026.346.213.746a.891.891 0 0 0-.4-.08c-.4 0-.88.187-1.493.534-.4.213-.72.453-1.014.746a2.86 2.86 0 0 0-.64.88c-.133.294-.186.694-.16 1.067.027.373.134.747.4 1.173l2.934 4.934c.106.186.24.346.373.426.133.08.24.133.4.16.16.027.267 0 .453-.053a4.1 4.1 0 0 0 .507-.214c.187-.106.373-.186.533-.373.16-.107.267-.213.374-.293l-2.24-3.787 1.44-.773c.213-.107.373-.267.4-.48.026-.107 0-.187 0-.347l-.054-.053z" fill="#F90"/><path d="M6.347 26.96c-.24-.427-.4-.826-.427-1.2a2.54 2.54 0 0 1 .16-1.093c.133-.373.373-.64.667-.934.266-.293.64-.533 1.04-.746.613-.373 1.173-.534 1.52-.534.4 0 .72.187.906.56.08.16.134.294.16.534.027.16 0 .293-.053.453-.187.053-.373.107-.587.16-.186.053-.4.16-.64.293a2.056 2.056 0 0 0-.746.64c-.134.24-.107.48.053.8l.24.374 2.08-1.174c.107.054.213.134.347.267.107.107.213.24.347.4.16.267.213.56.16.72a.725.725 0 0 1-.454.48l-1.467.827 2.32 3.893c-.053.08-.186.187-.373.294-.16.106-.373.24-.56.373-.186.133-.373.16-.533.24-.16.053-.293.053-.48.053a1.258 1.258 0 0 1-.4-.16 1.76 1.76 0 0 1-.4-.453l-2.88-5.067zM16.4 28.373c-.053.08-.187.16-.4.24-.187.107-.373.187-.587.294-.186.08-.373.133-.533.186-.16.054-.347.027-.48.027-.133-.027-.267-.107-.427-.213a1.654 1.654 0 0 1-.346-.507l-1.734-3.893c-.08-.187-.106-.4-.133-.56.027-.16.053-.347.16-.534.08-.16.24-.373.4-.56.16-.186.4-.346.56-.533.213-.16.453-.373.667-.48.213-.16.506-.267.746-.4.454-.16.8-.24 1.12-.187a.97.97 0 0 1 .72.614c.054.133.08.24.107.4.027.16.027.24 0 .373l-.56.24c-.187.08-.373.187-.56.347-.16.106-.347.213-.507.293-.16.107-.24.213-.373.293l2.16 4.56zM22.373 27.094c-.586.133-1.093.186-1.6.133-.506-.053-1.013-.16-1.413-.4-.453-.214-.827-.56-1.147-.934-.293-.4-.56-.906-.72-1.52-.133-.613-.186-1.146-.053-1.653.107-.48.267-.88.56-1.253.267-.374.587-.667.987-.854.4-.24.826-.4 1.28-.506.506-.107 1.013-.134 1.44-.107.453.053.853.16 1.226.347.374.186.667.426.907.773.24.293.427.693.533 1.12.054.347.054.56-.08.774-.133.213-.4.373-.666.506l-3.387 1.334c.16.266.48.453.8.506.32.053.72.053 1.173-.027.427-.106.747-.213 1.067-.426.347-.16.587-.373.773-.56.16.053.347.16.48.266a.91.91 0 0 1 .294.48c.106.427-.027.774-.374 1.094-.24.213-.586.426-.933.56-.4.133-.8.267-1.147.347zm-1.76-5.334c-.24.053-.4.133-.56.24-.16.107-.24.213-.346.373-.107.16-.107.267-.134.454-.026.16 0 .293.027.48l2.373-.934c-.08-.186-.213-.346-.48-.48-.186-.16-.48-.186-.88-.133zM29.627 26.213a5.074 5.074 0 0 1-1.6-.186 3.569 3.569 0 0 1-1.307-.667 3.144 3.144 0 0 1-.88-1.146c-.213-.48-.293-1.04-.347-1.654 0-.64.08-1.146.267-1.573.187-.453.48-.8.8-1.12a4.292 4.292 0 0 1 1.173-.667c.454-.133.88-.213 1.36-.24.534-.027.987.053 1.414.187.453.16.8.373 1.12.587.293.266.56.586.72.906.16.373.24.773.266 1.2 0 .347-.08.587-.266.72-.187.187-.454.267-.747.373l-3.627.587c.107.347.347.534.667.694.347.16.72.213 1.173.213.427 0 .774-.08 1.12-.187.374-.106.64-.213.854-.373.133.08.293.213.4.4.106.16.16.373.16.56 0 .453-.187.746-.587.986-.293.16-.667.267-1.04.347-.347.027-.72.027-1.093.053zm-.454-5.52c-.24 0-.453.054-.613.134-.16.08-.293.16-.427.293-.08.107-.186.24-.213.4-.053.134-.08.294-.08.454l2.533-.48a.864.864 0 0 0-.346-.56c-.214-.187-.507-.267-.854-.24z" fill="#FEC102"/></svg>
